# xmcd CD database file
#
# Track frame offsets:
#	150
#	62807
#	131963
#	169953
#	231548
#	265163
#
# Disc length: 4188 seconds
#
# Revision: 1
# Processed by: cddbd v1.5.1PL0 Copyright (c) Steve Scherf et al.
# Submitted via: CDex 1.51
#
DISCID=5c105a06
DTITLE=Steve Kimock and Friends - 02-10-31 Disc2
DYEAR=2002
DGENRE=Jazz
TTITLE0=Baby Baby
TTITLE1=Footprints
TTITLE2=Mercury Blues
TTITLE3=Drivin Wheel
TTITLE4=Steel Guitar Rag
TTITLE5=Far Away From Me
EXTD=YEAR: 2002
EXTT0=
EXTT1=
EXTT2=
EXTT3=
EXTT4=
EXTT5=
PLAYORDER=
